<svg xmlns="http://www.w3.org/2000/svg" width="438.536" height="438.536" viewBox="0 0 438.536 438.536"><path d="M414.41 24.123C398.333 8.043 378.963 0 356.315 0H82.228C59.58 0 40.21 8.042 24.126 24.123 8.046 40.207.003 59.576.003 82.225V356.31c0 22.646 8.042 42.017 24.123 58.1 16.084 16.085 35.454 24.127 58.102 24.127h274.084c22.648 0 42.018-8.042 58.095-24.126 16.084-16.08 24.126-35.45 24.126-58.1V82.23c0-22.65-8.043-42.018-24.123-58.102zm-232.825 237.97c-11.803 11.804-26.075 17.706-42.827 17.706-16.75 0-31.024-5.91-42.825-17.71-11.8-11.8-17.7-26.08-17.7-42.83 0-16.76 5.897-31.03 17.7-42.83 11.798-11.8 26.075-17.705 42.825-17.705 16.75 0 31.023 5.902 42.827 17.703 11.798 11.8 17.7 26.07 17.7 42.826 0 16.746-5.902 31.026-17.7 42.826zm161.018 0c-11.793 11.804-26.07 17.706-42.825 17.706-16.748 0-31.024-5.91-42.83-17.71-11.794-11.8-17.7-26.08-17.7-42.83 0-16.76 5.906-31.03 17.7-42.83 11.806-11.8 26.08-17.705 42.83-17.705 16.748 0 31.025 5.902 42.825 17.703 11.8 11.8 17.706 26.07 17.706 42.826 0 16.746-5.91 31.026-17.71 42.826z"/></svg>