<svg xmlns="http://www.w3.org/2000/svg" viewBox="0 0 491.858 491.858"><path d="M377.472 224.957H201.32v58.718h107.47c-16.032 51.048-63.714 88.077-120.055 88.077-69.492 0-125.823-56.335-125.823-125.824 0-69.492 56.333-125.823 125.823-125.823 34.994 0 66.645 14.29 89.452 37.346l42.622-46.32C286.77 77.776 240.16 57.2 188.73 57.2 84.5 57.197 0 141.697 0 245.93s84.5 188.737 188.736 188.737c91.307 0 171.248-64.844 188.737-150.99V224.96zm114.386-.1h-36.03v-36.03H424.94v36.03h-36.03v30.883h36.03v36.032h30.887V255.74h36.03z"/></svg>