<svg xmlns="http://www.w3.org/2000/svg" width="533.333" height="533.333" viewBox="0 0 533.333 533.333"><path d="M266.667 0C119.39 0 0 119.39 0 266.667c0 147.275 119.388 266.666 266.667 266.666 147.275 0 266.667-119.39 266.667-266.666S413.942 0 266.667 0zm25.856 356.31c-24.23-1.88-34.397-13.882-53.388-25.42-10.448 54.78-23.21 107.302-61.01 134.734-11.67-82.795 17.132-144.98 30.505-210.997-22.804-38.39 2.744-115.643 50.844-96.6 59.18 23.41-51.25 142.71 22.88 157.612 77.406 15.55 109.006-134.31 61.012-183.04-69.354-70.37-201.874-1.61-185.578 99.14 3.966 24.63 29.412 32.1 10.168 66.09-44.385-9.84-57.63-44.847-55.925-91.52 2.75-76.39 68.64-129.874 134.74-137.27 83.58-9.355 162.03 30.68 172.87 109.31 12.198 88.746-37.73 184.86-127.105 177.95z"/></svg>