<svg xmlns="http://www.w3.org/2000/svg" viewBox="0 0 612 612"><path d="M612 116.258a250.714 250.714 0 0 1-72.088 19.772c25.93-15.527 45.777-40.155 55.184-69.41-24.322 14.378-51.17 24.82-79.775 30.48-22.9-24.438-55.49-39.66-91.63-39.66-69.33 0-125.55 56.218-125.55 125.514 0 9.828 1.11 19.427 3.25 28.606-104.32-5.24-196.83-55.223-258.75-131.174-10.82 18.51-16.98 40.078-16.98 63.1 0 43.56 22.19 81.994 55.84 104.48a125.556 125.556 0 0 1-56.87-15.756v1.568c0 60.806 43.29 111.554 100.7 123.104a127.12 127.12 0 0 1-33.08 4.398 120.5 120.5 0 0 1-23.63-2.333c15.986 49.907 62.337 86.2 117.254 87.194-42.947 33.66-97.1 53.66-155.915 53.66-10.134 0-20.116-.61-29.944-1.72 55.57 35.68 121.538 56.49 192.44 56.49 230.948 0 357.188-191.29 357.188-357.184l-.42-16.253c24.66-17.595 46-39.7 62.79-64.863z" fill="#010002"/></svg>