<svg xmlns="http://www.w3.org/2000/svg" width="548.358" height="548.358" viewBox="0 0 548.358 548.358"><path d="M545.45 400.298c-.663-1.43-1.282-2.618-1.857-3.57-9.514-17.134-27.695-38.166-54.532-63.1l-.56-.572-.28-.28-.28-.287h-.29c-12.18-11.62-19.89-19.42-23.12-23.42-5.91-7.62-7.23-15.32-4-23.13 2.28-5.9 10.86-18.36 25.7-37.4 7.81-10.09 13.99-18.18 18.56-24.27 32.93-43.78 47.21-71.76 42.83-83.94l-1.7-2.85c-1.146-1.72-4.096-3.28-8.85-4.71-4.763-1.43-10.852-1.67-18.28-.71l-82.225.56c-1.332-.47-3.234-.43-5.712.14l-3.71.86-1.43.71-1.133.86c-.95.56-2 1.56-3.14 2.99-1.14 1.42-2.09 3.09-2.85 4.99-8.95 23.03-19.13 44.447-30.55 64.24-7.04 11.805-13.51 22.034-19.418 30.695-5.9 8.66-10.85 15.04-14.843 19.126-4 4.093-7.61 7.37-10.85 9.85-3.24 2.477-5.71 3.524-7.42 3.14a209.21 209.21 0 0 1-4.86-1.14c-2.66-1.715-4.805-4.046-6.42-6.996-1.62-2.95-2.714-6.66-3.285-11.134-.57-4.475-.9-8.325-1-11.562-.09-3.237-.05-7.81.148-13.71.2-5.9.29-9.898.29-11.99 0-7.236.143-15.087.426-23.557.29-8.47.52-15.18.716-20.12.195-4.95.285-10.185.285-15.705s-.332-9.85-1-12.99a44.442 44.442 0 0 0-2.99-9.14c-1.33-2.95-3.29-5.236-5.85-6.856-2.57-1.62-5.762-2.9-9.563-3.857-10.09-2.28-22.94-3.52-38.55-3.71-35.4-.38-58.146 1.91-68.234 6.857-4 2.09-7.612 4.95-10.85 8.564-3.43 4.19-3.903 6.478-1.43 6.85 11.42 1.715 19.51 5.808 24.268 12.28l1.72 3.43c1.335 2.47 2.667 6.85 4 13.13 1.33 6.28 2.19 13.23 2.568 20.84.95 13.894.95 25.79 0 35.69-.95 9.9-1.85 17.603-2.71 23.123-.86 5.52-2.143 9.99-3.855 13.414-1.71 3.427-2.85 5.52-3.424 6.28-.57.76-1.05 1.24-1.427 1.43a21.387 21.387 0 0 1-7.71 1.43c-2.67 0-5.9-1.335-9.71-4-3.804-2.67-7.753-6.33-11.846-10.99-4.09-4.67-8.706-11.19-13.85-19.56-5.134-8.375-10.464-18.27-15.984-29.69l-4.57-8.284c-2.854-5.32-6.754-13.08-11.703-23.26-4.95-10.183-9.33-20.035-13.132-29.552-1.52-3.997-3.805-7.04-6.85-9.134l-1.43-.86c-.95-.76-2.473-1.566-4.565-2.426a30.3 30.3 0 0 0-6.564-1.852l-78.23.57c-7.998 0-13.42 1.81-16.278 5.427l-1.14 1.71c-.57.95-.86 2.47-.86 4.57 0 2.09.57 4.66 1.714 7.703 11.42 26.84 23.84 52.727 37.26 77.66 13.42 24.935 25.08 45.02 34.976 60.238 9.896 15.23 19.984 29.604 30.263 43.114 10.28 13.515 17.088 22.176 20.417 25.98 3.33 3.81 5.95 6.66 7.852 8.566l7.14 6.85c4.564 4.57 11.272 10.04 20.123 16.41 8.855 6.38 18.656 12.66 29.41 18.85 10.758 6.18 23.27 11.225 37.548 15.126 14.28 3.905 28.17 5.47 41.69 4.72h32.834c6.66-.578 11.704-2.67 15.133-6.286l1.134-1.43c.765-1.14 1.48-2.906 2.14-5.28.67-2.38 1-5 1-7.85-.195-8.186.43-15.56 1.85-22.127 1.425-6.566 3.047-11.515 4.86-14.848 1.814-3.33 3.86-6.14 6.137-8.42 2.28-2.285 3.91-3.668 4.86-4.144.95-.48 1.707-.802 2.278-1 4.57-1.52 9.948-.045 16.14 4.43 6.19 4.475 11.99 9.998 17.42 16.56 5.427 6.57 11.945 13.94 19.557 22.126 7.62 8.183 14.28 14.27 19.984 18.27l5.704 3.427c3.81 2.29 8.76 4.38 14.85 6.287 6.08 1.9 11.41 2.38 15.98 1.43l73.08-1.13c7.23 0 12.855-1.197 16.845-3.57 3.997-2.38 6.37-5 7.14-7.85.76-2.857.8-6.095.14-9.715-.675-3.61-1.342-6.137-2.01-7.56z"/></svg>